<svg width="24" height="24" viewBox="0 0 24 24" fill="none" xmlns="http://www.w3.org/2000/svg">
<path d="M13.8499 12L23.2249 0.824974C23.3821 0.63926 23.2499 0.357117 23.0071 0.357117H20.1571C19.9892 0.357117 19.8285 0.432117 19.7178 0.560688L11.9857 9.77855L4.25351 0.560688C4.14637 0.432117 3.98565 0.357117 3.81422 0.357117H0.964223C0.721366 0.357117 0.589223 0.63926 0.746366 0.824974L10.1214 12L0.746366 23.175C0.711164 23.2164 0.688581 23.267 0.681297 23.3208C0.674013 23.3747 0.682333 23.4295 0.705271 23.4788C0.728209 23.528 0.764801 23.5697 0.810702 23.5987C0.856603 23.6278 0.909885 23.6431 0.964223 23.6428H3.81422C3.98208 23.6428 4.1428 23.5678 4.25351 23.4393L11.9857 14.2214L19.7178 23.4393C19.8249 23.5678 19.9857 23.6428 20.1571 23.6428H23.0071C23.2499 23.6428 23.3821 23.3607 23.2249 23.175L13.8499 12Z" fill="#404040"/>
</svg>
