<svg width="14" height="14" viewBox="0 0 14 14" fill="none" xmlns="http://www.w3.org/2000/svg">
<path d="M5.69165 0.200012C2.56874 0.200012 0.0249786 2.74378 0.0249786 5.86668C0.0249786 8.98958 2.56874 11.5333 5.69165 11.5333C7.04967 11.5333 8.29683 11.0511 9.27426 10.2506L12.6577 13.634C12.7099 13.6884 12.7724 13.7318 12.8416 13.7617C12.9108 13.7916 12.9853 13.8074 13.0607 13.8082C13.1361 13.809 13.2109 13.7947 13.2807 13.7662C13.3505 13.7377 13.4139 13.6955 13.4672 13.6422C13.5205 13.5889 13.5627 13.5255 13.5911 13.4557C13.6196 13.3859 13.6339 13.3111 13.6332 13.2357C13.6324 13.1603 13.6166 13.0859 13.5867 13.0167C13.5568 12.9475 13.5133 12.8849 13.459 12.8327L10.0756 9.4493C10.8761 8.47186 11.3583 7.2247 11.3583 5.86668C11.3583 2.74378 8.81455 0.200012 5.69165 0.200012ZM5.69165 1.33335C8.20205 1.33335 10.225 3.35628 10.225 5.86668C10.225 8.37708 8.20205 10.4 5.69165 10.4C3.18124 10.4 1.15831 8.37708 1.15831 5.86668C1.15831 3.35628 3.18124 1.33335 5.69165 1.33335Z" fill="white"/>
</svg>
